<svg xmlns="http://www.w3.org/2000/svg" viewBox="0 0 512.12 512.12"><path d="M74.727 170.787c-17.673 0-32 14.327-32 32V352.12c0 17.673 14.327 32 32 32s32-14.327 32-32V202.787c0-17.673-14.327-32-32-32zm362.666 0c-17.673 0-32 14.327-32 32V352.12c0 17.673 14.327 32 32 32s32-14.327 32-32V202.787c0-17.673-14.326-32-32-32zm-64 0H138.727a10.67 10.67 0 0 0-10.667 10.667V352.12c-.005 25.348 17.83 47.197 42.667 52.267v75.733c0 17.673 14.327 32 32 32s32-14.327 32-32v-74.667h42.667v74.667c0 17.673 14.327 32 32 32s32-14.327 32-32v-75.733c24.836-5.07 42.672-26.92 42.667-52.267V181.454a10.67 10.67 0 0 0-10.668-10.667zM333.607 44.323l26.005-25.984a10.67 10.67 0 0 0 .262-15.083 10.67 10.67 0 0 0-15.083-.262L314.236 33.55a145.99 145.99 0 0 0-116.331 0L167.612 3.235a10.67 10.67 0 0 0-15.083.262 10.67 10.67 0 0 0 0 14.82l25.984 26.005c-31.677 20.96-50.65 56.48-50.453 94.464a10.67 10.67 0 0 0 10.667 10.667h234.667a10.67 10.67 0 0 0 10.667-10.667 112.58 112.58 0 0 0-50.454-94.463z" fill="#4caf50"/><g fill="#fafafa"><circle cx="202.727" cy="96.12" r="10.667"/><circle cx="309.393" cy="96.12" r="10.667"/></g></svg>