<svg xmlns="http://www.w3.org/2000/svg" height="512" width="512"><g fill="#e54d26"><rect height="512" rx="64" width="512"/><path d="M356.3 380.36c-.07.04-.08.06-.062.03-.68 1.144-.697 2.653-1 4v.03c-.005.02.005.043 0 .063-.147 1.446-.624 2.92-.28 4.313a.5.5 0 0 1 .031.094c.003.01-.003.02 0 .03s-.005.024 0 .03.025-.008.03 0c.073.1.162.176.22.188.04.008.1.004.25-.094.15-.105.237-.316.28-.594a.5.5 0 0 1 .063-.094v-.03a.5.5 0 0 1 .031-.094l.03-.03c.598-2.387 1.003-4.892.844-7.344-.02-.122-.043-.207-.156-.344a.98.98 0 0 0-.156-.156c-.02-.014.007-.004-.062 0h-.03c-.026.003-.016-.001-.03 0zm5.5 1.17c-1.036.504-1.567 1.705-2.28 2.688-.007.032-.018.064-.03.094l-.03.063c-.906 1.605-2.06 3.207-2.187 5.063-.001.01.001.02 0 .03.014.28.174.432.344.47s.474-.06.594-.25l.03-.03v-.062c1.646-2.262 2.884-4.925 3.906-7.53v-.03c.07-.17.094-.215.03-.344a.51.51 0 0 0-.312-.156c-.016.007-.046-.008-.062 0zm-16.13.747c-.167.03-.416.18-.594.25-.628.238-.975.777-1.125 1.406-.153.644-.102 1.36 0 2.094s.248 1.486.406 2.063l.28.906v.125c0 .055-.026.05-.062.094-.02.01.02.063 0 .063-.045.035-.1.063-.156.063-.1.007-.198-.033-.312-.062-.078-.018-.18-.08-.156-.062-.036-.022-.1-.024-.125-.062 0 .015.022.014 0-.03s-.054-.166-.094-.25c-.1-.2-.16-.4-.28-.687l-.906-1.875c-.35-.64-.762-1.224-1.22-1.625-.228-.2-.5-.402-.78-.47-.262-.065-.573-.01-.844.125-.7.388-1.096 1.024-1.25 1.688-.155.673-.082 1.45.03 2.125s.292 1.23.406 1.688l.125.47c0 .096-.04.345-.062.438-.118.4-.406 1.094-.406 1.094s-5.453 14.483 6.25 13.47c.096-.007.315-.062.406-.062 2.298-.463 4.473-1.158 6.406-1.937l1.438-.625 3.875-1.937s2.605-1.533 3.563-2.375 1.66-1.767 1.53-2.687c-.204-1.483-1.2-2.586-2.5-3.437s-2.957-1.445-4.594-1.875-3.224-.78-4.437-.97l-1.53-.187c-.105-.018-.162-.044-.22-.062-.03-.004-.033-.013-.062-.03-.036-.022-.103-.024-.125-.062s0-.083 0-.125v-.97c-.02-.748-.064-1.736-.22-2.656s-.398-1.8-.906-2.406a1.77 1.77 0 0 0-1.25-.625c-.156-.018-.33-.03-.5 0z" transform="matrix(15.99685 0 0 15.99685 -5338.7915 -6028.4756)"/></g><path d="M79.67 56l32.085 360.016L255.77 456l144.445-40.045L432.33 56zm65.628 73.588H366.46l-3.95 44.15H193.543l4.042 45.24h160.88l-12.092 135.54-90.565 25.103-90.45-25.097-6.17-69.336h44.3l3.16 35.214 49.16 13.278.214-.052v.035l49.07-13.278 5.134-57.242h-153l-10.847-121.687z" fill="#fff"/></svg>