<svg xmlns="http://www.w3.org/2000/svg" height="512" width="512"><path d="M333.283 307.117c8.807-6.02 21.023-11.23 21.023-11.23s-34.768 6.3-69.357 9.165c-42.315 3.503-87.775 4.22-110.595 1.167C120.358 299.032 204 279.175 204 279.175s-32.433-2.154-72.413 17.07c-47.166 22.82 116.795 33.242 201.695 10.872z" fill="#5382a1"/><path d="M256.56 278.277c-17.07-38.362-74.66-72.054 0-131C349.727 73.797 301.93 26 301.93 26c19.316 75.917-67.92 98.917-99.456 146.084-21.473 32.253 10.512 66.843 54.086 106.193zm102.958-158.302c.1 0-157.403 39.35-82.205 125.958 22.2 25.516-5.84 48.516-5.84 48.516s56.332-29.108 30.457-65.495c-24.168-33.96-42.676-50.85 57.588-108.98z" fill="#f8981d"/><path d="M354.04 363c-.45 1.078-1.797 2.247-1.797 2.336 115.266-30.277 72.86-106.824 17.787-87.416-4.852 1.707-7.365 5.66-7.365 5.66s3.053-1.26 9.883-2.696c27.85-5.84 67.83 37.285-18.508 82.116h0zm42.403 55.97s13.027 10.692-14.285 19.047c-52.018 15.722-216.34 20.483-261.98.63-16.44-7.1 14.374-17.072 24.078-19.137 10.06-2.157 15.9-1.8 15.9-1.8-18.238-12.847-117.963 25.247-50.67 36.12 183.458 29.826 334.574-13.388 286.956-34.86h0zm-200.886-37.194c-70.706 19.766 43.035 60.555 133.055 22-14.732-5.748-25.334-12.397-25.334-12.397-40.16 7.637-58.756 8.175-95.233 4.043-30.097-3.414-12.488-13.657-12.488-13.657h0zm161.535 87.327c-70.705 13.296-157.94 11.77-209.602 3.233 0-.088 10.602 8.716 65.046 12.22 82.834 5.302 210.05-2.966 213.016-42.136.001 0-5.75 14.825-68.46 26.683h0zm-39.17-125.96c-53.188 10.243-84.003 9.973-122.904 5.93-30.098-3.145-10.422-17.698-10.422-17.698-77.982 25.874 43.304 55.164 152.28 23.27-11.588-4.044-18.955-11.5-18.955-11.5z" fill="#5382a1"/></svg>