<svg xmlns="http://www.w3.org/2000/svg" viewBox="0 0 504 504"><path d="M452.2 251.6c-9.2 58.5-27.1 75.6-58.8 114.9-31.7 33.3-77.3 88.9-141.9 85.8-58.5-9.2-75.6-27.1-114.9-58.8-33.3-31.7-88.9-77.3-85.8-141.9 9.2-58.5 27.1-75.6 58.8-114.9 31.7-33.3 77.3-88.9 141.9-85.8 58.5 9.2 75.6 27.1 114.9 58.8 33.3 31.7 88.9 77.3 85.8 141.9z" fill="#3765af"/><path d="M104.1 302.9h9.8v-38.8l15.4 33.8c1.7 4.1 4.2 5.6 9.1 5.6s7.1-1.5 9-5.6l15.2-33.8v38.8h9.8v-38.8c0-3.7-1.5-5.6-4.7-6.6-7.4-2.2-12.5-.3-14.7 4.7l-15 33.4-14.5-33.4c-2.2-5.1-7.3-6.9-14.7-4.7-3 1-4.6 2.9-4.6 6.6l-.1 38.8zm76.3-31.6h9.8v21.3c0 1.2.3 3.9 5.7 4.1h21.4v-25.5h9.8v35c0 8.6-10.6 10.5-15.5 10.5h-31.1V310h31.1c6.2-.7 5.6-3.9 5.6-4.9v-2.5h-20.9c-9.8 0-16-4.4-16-9.3.1-.4.3-21.8.1-22h0zm211.8-24.6c-6.1-.2-10.6.5-14.7 2-1.2.5-2.9.5-3 1.9.7.7.7 1.5 1.2 2.4.8 1.5 2.5 3.5 3.9 4.6 1.5 1.2 3.2 2.4 4.9 3.5 2.9 1.9 6.2 2.9 9.1 4.7 1.7 1 3.4 2.4 4.9 3.5.8.7 1.4 1.5 2.4 2v-.2c-.5-.7-.7-1.7-1.2-2.4-.7-.7-1.5-1.4-2.2-2.2-2.2-2.9-4.9-5.6-7.8-7.6-2.4-1.7-7.8-3.9-8.6-6.8l-.2-.2c1.7-.2 3.5-.7 5.2-1.2 2.5-.7 4.9-.5 7.6-1.2 1.2-.3 2.4-.7 3.5-1v-.7c-1.4-1.4-2.4-3.2-3.7-4.4-3.9-3.4-8.1-6.6-12.5-9.3-2.4-1.5-5.4-2.5-7.8-3.7-.8-.5-2.4-.7-2.9-1.4-1.4-1.7-2-3.9-3-5.7-2.2-4.2-4.2-8.8-6.2-13.2-1.4-2.9-2.2-5.9-3.9-8.6-7.8-12.8-16.2-20.6-29.2-28.2-2.9-1.5-6.1-2.2-9.6-3-1.9 0-3.7-.2-5.6-.3-1.2-.5-2.4-2-3.5-2.7-4.2-2.7-15.4-8.6-18.6-.8-2 4.9 3 9.8 4.7 12.2 1.4 1.7 2.9 3.7 3.9 5.6.5 1.4.7 2.7 1.2 4.1 1.2 3.4 2.4 6.9 3.9 10.1.8 1.5 1.7 3.2 2.9 4.7.7.8 1.7 1.2 1.9 2.5-1 1.5-1.2 3.7-1.7 5.6-2.7 8.4-1.7 19.1 2.2 25.3 1.2 1.9 4.1 6.1 7.9 4.4 3.4-1.4 2.7-5.6 3.5-9.5.2-.8 0-1.5.5-2v.2l3 6.2c2.4 3.7 6.4 7.6 9.8 10.1 1.9 1.4 3.2 3.7 5.6 4.6v-.2h-.2c-.5-.7-1.2-1-1.7-1.5-1.4-1.4-2.9-3-3.9-4.6-3.2-4.2-5.9-9-8.4-13.7-1.2-2.4-2.2-4.9-3.2-7.3-.5-.8-.5-2.2-1.2-2.7-1.2 1.7-2.9 3-3.5 5.1-1.4 3.2-1.5 7.3-2 11.3-.3 0-.2 0-.3.2-2.4-.7-3.2-3-4.2-5.2-2.2-5.4-2.7-14-.7-20.1.5-1.5 2.9-6.6 1.9-8.1-.5-1.4-2-2.2-2.9-3.4-1-1.4-2-3.2-2.7-4.9-1.9-4.2-2.7-9-4.7-13.2-.8-2-2.5-4.1-3.7-5.7-1.4-2-3-3.5-4.2-5.9-.3-.8-.8-2.2-.3-3 .2-.7.5-.8 1-1 1-.8 3.7.2 4.7.7 2.9 1.2 5.1 2.2 7.4 3.7 1 .7 2.2 2.2 3.5 2.5h1.5c2.4.5 5.1.2 7.4.8 4.1 1.4 7.6 3.2 10.8 5.2 9.8 6.2 18.1 15.2 23.5 25.8.8 1.7 1.4 3.4 2 5.1 1.5 3.7 3.5 7.4 5.1 11.1 1.5 3.5 3 7.1 5.4 10.1 1.2 1.5 5.6 2.4 7.8 3.2 1.5.7 3.9 1.4 5.2 2 2.5 1.5 5.1 3.4 7.6 5.1 1.1 1.3 4.9 3.2 5.2 4.7h0zm-76.9-65.6c-1.4 0-2.2.2-3 .3v.2h.2c.7 1.2 1.7 2 2.4 3 .7 1.2 1.2 2.4 1.7 3.5l.2-.2c1-.7 1.5-2 1.5-3.7-.5-.5-.5-1-.8-1.5-.6-.5-1.6-.9-2.2-1.6h0zm-80.5 121.8h28.4c3.4 0 6.4-.7 9.1-1.9 4.2-2 6.2-4.6 6.2-8.1v-7.3c0-2.9-2.4-5.4-6.9-7.3-2.4-.8-5.4-1.4-8.4-1.4h-11.8c-4.1 0-5.9-1.2-6.4-3.9v-5.8c.5-2 1.5-2.5 5.1-2.9h28.8v-6.6h-27.5c-4.1 0-6.1.2-7.9.8-5.7 1.9-8.4 4.7-8.4 9.8v5.7c0 4.4 4.9 8.3 13.3 9.1h14c3 .3 4.4.8 5.4 2 .7.7.7 1.2.7 1.9v5.7c0 .7-.5 1.5-1.4 2.4-.8.8-2.4 1.4-4.2 1.4h-28.2v6.4h.1zm105-11.3c0 6.8 5.1 10.5 15.2 11.1 1 0 1.9.2 2.9.2h25.7v-6.6h-25.8c-5.7 0-7.9-1.4-7.9-4.9v-33.9h-10v34.1h-.1zm-55 .3v-23.3c0-5.9 4.2-9.6 12.5-10.6.8 0 1.9-.2 2.7-.2h18.7c1 0 1.9 0 2.9.2 8.3 1.2 12.3 4.7 12.3 10.6v23.3c0 4.9-1.7 7.4-5.7 9.1l9.6 8.8h-11.3l-7.8-7.1-7.9.5h-10.5a23.95 23.95 0 0 1-5.7-.7c-6.8-2-9.8-5.2-9.8-10.6h0zm10.6-.6c0 .3.2.7.2 1 .5 2.7 3 4.2 6.9 4.2h9l-8.1-7.4h11.3l7.1 6.4c1.4-.7 2.2-1.9 2.5-3.2V268c-.5-2.5-3-4.1-6.9-4.1h-14.7c-4.4 0-7.3 1.9-7.3 4.9v22.5z" fill="#fff"/></svg>