<svg xmlns="http://www.w3.org/2000/svg" viewBox="0 0 512 512"><path d="M512 256c0 23.155-3.072 45.6-8.84 66.936-13.48 49.894-41.66 93.748-79.62 126.63C378.64 488.47 320.073 512 256 512 114.615 512 0 397.385 0 256S114.615 0 256 0s256 114.615 256 256z" fill="#0078cf"/><path d="M503.16 322.936c-13.48 49.894-41.66 93.748-79.62 126.63-3.7.2-7.586.293-11.6.293-53.154 0-82.693-33.217-97.374-58.138l48.2-28.954s16.394 34.837 47.125 34.837c30.74 0 43.04-10.25 43.04-33.813 0-28.693-99.4-38.933-114.76-88.116s5.12-118.868 76.852-113.737c44.826 3.197 70.04 25.213 82.65 41.273l-47.815 34.544c-10.25-29.706-52.255-29.706-60.458-5.12-8.192 24.597 19.466 38.933 62.506 53.28 22.1 7.367 39.895 20.96 51.274 37.02zm-202.217-153.15H83.106v51.416h79.83V444.45h58.18V221.202h79.828z" fill="#f2f2f2"/></svg>